<!DOCTYPE svg PUBLIC "-//W3C//DTD SVG 20010904//EN" "http://www.w3.org/TR/2001/REC-SVG-20010904/DTD/svg10.dtd">
<svg version="1.0" xmlns="http://www.w3.org/2000/svg" width="600px" height="600px" viewBox="0 0 6000 6000" preserveAspectRatio="xMidYMid meet">
<g id="layer101" fill="#ffffff" stroke="none">
 <path d="M0 3000 l0 -3000 3000 0 3000 0 0 3000 0 3000 -3000 0 -3000 0 0 -3000z"/>
 </g>
<g id="layer102" fill="#054b87" stroke="none">
 <path d="M0 5106 l0 -894 33 -8 c17 -3 97 -29 177 -56 290 -97 822 -243 1127 -307 162 -34 411 -75 573 -93 176 -19 608 -16 750 5 305 47 529 128 825 297 318 182 453 217 793 207 270 -8 419 -43 874 -208 390 -140 614 -216 736 -248 l112 -29 0 1114 0 1114 -3000 0 -3000 0 0 -894z"/>
 <path d="M0 2015 l0 -2015 3000 0 3000 0 0 1790 0 1790 -22 14 c-13 8 -84 32 -158 54 -74 22 -232 69 -351 105 -591 179 -951 245 -1259 234 -178 -7 -279 -30 -409 -94 -222 -110 -342 -311 -328 -548 10 -154 69 -285 176 -388 128 -124 301 -181 478 -156 109 15 167 38 276 108 108 70 143 77 177 34 20 -26 22 -36 17 -118 -19 -310 -153 -603 -372 -814 -220 -211 -433 -291 -739 -278 -167 7 -279 37 -441 116 -263 129 -439 286 -824 736 -394 460 -702 722 -1171 995 -203 118 -529 277 -744 362 -90 36 -264 88 -293 88 -10 0 -13 -410 -13 -2015z"/>
 </g>
<g id="layer103" fill="#984447" stroke="none">
 <path d="M0 2015 l0 -2015 3000 0 3000 0 0 1790 0 1790 -22 14 c-13 8 -84 32 -158 54 -74 22 -232 69 -351 105 -591 179 -951 245 -1259 234 -178 -7 -279 -30 -409 -94 -222 -110 -342 -311 -328 -548 10 -154 69 -285 176 -388 128 -124 301 -181 478 -156 109 15 167 38 276 108 108 70 143 77 177 34 20 -26 22 -36 17 -118 -19 -310 -153 -603 -372 -814 -220 -211 -433 -291 -739 -278 -167 7 -279 37 -441 116 -263 129 -439 286 -824 736 -394 460 -702 722 -1171 995 -203 118 -529 277 -744 362 -90 36 -264 88 -293 88 -10 0 -13 -410 -13 -2015z"/>
 </g>

</svg>
